<?xml version="1.0" encoding="UTF-8"?>
<svg version="1.1" xmlns="http://www.w3.org/2000/svg" width="318" height="404">
<path d="M0 0 C104.94 0 209.88 0 318 0 C318 133.32 318 266.64 318 404 C213.06 404 108.12 404 0 404 C0 270.68 0 137.36 0 0 Z " fill="#FDFDFE" transform="translate(0,0)"/>
<path d="M0 0 C3.80532678 1.48050598 7.21033492 3.18857422 10.7265625 5.2734375 C11.83161133 5.92755615 12.93666016 6.5816748 14.07519531 7.25561523 C15.25861999 7.96181472 16.44188485 8.66828208 17.625 9.375 C18.22614624 9.73248322 18.82729248 10.08996643 19.44665527 10.45828247 C27.8855969 15.47677019 36.24505125 20.60849091 44.52392578 25.88745117 C49.48051126 29.04786292 54.46565648 32.15230337 59.5 35.1875 C60.1177832 35.56253662 60.73556641 35.93757324 61.37207031 36.32397461 C63.90242281 37.83996146 66.18989229 39.06329743 69 40 C69.30208167 51.67422111 69.53262717 63.34750339 69.67355824 75.02484608 C69.74122431 80.44823169 69.83288365 85.8689317 69.98071289 91.29077148 C70.12265949 96.5300421 70.1998313 101.76674184 70.23340416 107.0077877 C70.25730536 109.00031696 70.30398602 110.99271548 70.37449074 112.9841404 C70.93165032 129.38338317 70.93165032 129.38338317 66.19735718 134.60116577 C63.04857253 137.4975166 59.61871662 139.73067172 56 142 C54.29528249 143.33242704 52.60376926 144.68229337 50.9375 146.0625 C50.1434375 146.69027344 49.349375 147.31804687 48.53125 147.96484375 C46.15191912 149.87785515 43.81746482 151.83740315 41.48876953 153.81152344 C36.84951265 157.73963204 32.22591786 161.38031606 27.03515625 164.55078125 C24.39385876 166.43162841 22.29145398 168.70524421 20 171 C17.56814669 173.10073756 15.06811938 175.11318219 12.5625 177.125 C11.85730225 177.69484619 11.15210449 178.26469238 10.42553711 178.85180664 C5.44241803 182.86861108 0.41414396 186.8252531 -4.6340332 190.75976562 C-9.367711 194.46490606 -13.99931191 198.2863249 -18.625 202.125 C-24.44131461 206.94629866 -30.31093838 211.6259146 -36.4140625 216.08203125 C-38.08989308 217.32498112 -39.73395004 218.61244326 -41.3359375 219.94921875 C-42.02945313 220.52285156 -42.72296875 221.09648437 -43.4375 221.6875 C-44.30181641 222.43580078 -44.30181641 222.43580078 -45.18359375 223.19921875 C-47 224 -47 224 -49.3828125 223.421875 C-52.42813828 221.7673995 -54.81752049 219.83363341 -57.4375 217.5625 C-58.50111495 216.65320307 -59.56628072 215.74571771 -60.6328125 214.83984375 C-61.18485352 214.37046387 -61.73689453 213.90108398 -62.30566406 213.41748047 C-65.09015806 211.0879744 -67.94898739 208.85612497 -70.8125 206.625 C-76.65354415 202.06956023 -82.44365384 197.45453729 -88.20239258 192.79541016 C-91.43310986 190.14580316 -91.43310986 190.14580316 -95 188 C-95 183.71 -95 179.42 -95 175 C-85.1 175 -75.2 175 -65 175 C-65 158.17 -65 141.34 -65 124 C-64.34 124 -63.68 124 -63 124 C-63 124.66 -63 125.32 -63 126 C-62.44183594 126.25394531 -61.88367188 126.50789063 -61.30859375 126.76953125 C-57.76520765 128.65813805 -54.70911141 131.1887997 -51.53515625 133.63671875 C-48.38226609 135.33218665 -47.37208974 134.99061296 -44 134 C-41.93802543 132.78761134 -41.93802543 132.78761134 -40.03125 131.19140625 C-38.93707764 130.32563965 -38.93707764 130.32563965 -37.82080078 129.44238281 C-37.05493652 128.82202148 -36.28907227 128.20166016 -35.5 127.5625 C-33.88311788 126.27695956 -32.26592857 124.99180541 -30.6484375 123.70703125 C-29.85663086 123.07361816 -29.06482422 122.44020508 -28.24902344 121.78759766 C-25.82100052 119.85772533 -23.36694862 117.96696216 -20.89306641 116.09643555 C-19.36088402 114.92963275 -17.85099783 113.73366158 -16.3454895 112.53263855 C-14.20911866 110.8612037 -12.19173478 109.52944315 -9.82574463 108.15200806 C-5.51337632 105.36058326 -1.86118062 102.84615396 -0.31980896 97.75200653 C0.7875763 90.93058382 0.52379446 84.03419382 0.390625 77.1484375 C0.39068139 74.92069893 0.39603192 72.69295477 0.40643311 70.46524048 C0.41956929 64.62807879 0.36120665 58.79377875 0.28753662 52.95715332 C0.22501882 46.99102401 0.23068101 41.02499304 0.23046875 35.05859375 C0.22007282 23.37149659 0.1340822 11.68628721 0 0 Z " fill="#091A69" transform="translate(203,143)"/>
<path d="M0 0 C3.70759664 1.40559379 6.12210131 2.75700281 9 5.5 C13.06697713 9.23197078 17.31449147 12.60360371 21.71118164 15.93774414 C26.19317244 19.35048294 30.57641258 22.87186402 34.9375 26.4375 C41.00614564 31.39872855 47.13362714 36.2711246 53.328125 41.07421875 C53.87104187 41.52642288 54.41395874 41.97862701 54.97332764 42.4445343 C57.08345846 44.12829559 57.08345846 44.12829559 59.92755127 45.73356628 C68.03888189 51.13976729 68.03888189 51.13976729 69.71015167 56.1133709 C70.86807589 62.36441448 70.68187198 68.70712498 70.59375 75.0390625 C70.6018454 77.09070487 70.61350154 79.14233598 70.62854004 81.19393921 C70.64617143 85.48002419 70.62072618 89.76309544 70.56445312 94.04882812 C70.49597475 99.52964599 70.53551829 105.00342639 70.60732269 110.48398781 C70.6507835 114.71567416 70.63684628 118.94570312 70.60578918 123.17744064 C70.59781448 125.19716615 70.60750271 127.21704475 70.63554382 129.23659134 C70.80591548 144.94974052 70.80591548 144.94974052 66.42984009 149.91790771 C63.36225043 151.98236317 60.36567867 153.48493047 57 155 C55.00405242 156.31764861 53.02883881 157.66781756 51.0859375 159.0625 C50.14105469 159.71347656 49.19617188 160.36445313 48.22265625 161.03515625 C46.28314526 162.37339223 44.34572458 163.71466159 42.41015625 165.05859375 C41.47816406 165.69925781 40.54617187 166.33992187 39.5859375 167 C38.7511084 167.5775 37.9162793 168.155 37.05615234 168.75 C35 170 35 170 33 170 C33 202.34 33 234.68 33 268 C29.1756518 266.47026072 27.36138218 265.7364866 24.43359375 263.27734375 C23.78197266 262.73787109 23.13035156 262.19839844 22.45898438 261.64257812 C21.45834961 260.79856445 21.45834961 260.79856445 20.4375 259.9375 C19.12586766 258.83984997 17.81199975 257.74486669 16.49609375 256.65234375 C15.84073765 256.08275657 15.18538155 255.51316938 14.51016617 254.92632198 C12.02653976 252.89319146 12.02653976 252.89319146 8.98382187 251.49794102 C4.56427728 249.04825214 0.8729009 246.81717101 -0.68537235 241.78805232 C-1.81778455 234.77400441 -1.50143673 227.65822741 -1.36230469 220.57983398 C-1.35891786 218.17459788 -1.3608236 215.76934938 -1.36761475 213.36412048 C-1.37069734 207.52297555 -1.31880189 201.68420396 -1.24236283 195.84360086 C-1.15636507 189.04429369 -1.13860291 182.24531734 -1.12490478 175.44554246 C-1.09868118 163.32086109 -1.01893389 151.19715193 -0.90527344 139.07299805 C-0.79501956 127.29993534 -0.71013137 115.52713728 -0.65917969 103.75366211 C-0.65602701 103.0271997 -0.65287432 102.30073729 -0.64962611 101.55226087 C-0.63396495 97.90758485 -0.61880062 94.26290697 -0.60388327 90.61822784 C-0.47960746 60.41145602 -0.26746617 30.2058633 0 0 Z " fill="#21095C" transform="translate(38,31)"/>
<path d="M0 0 C0.33 0.66 0.66 1.32 1 2 C2.66553286 2.33895306 4.33240585 2.6713381 6 3 C8.34008789 4.16748047 8.34008789 4.16748047 10.72265625 5.6171875 C11.59083984 6.14183594 12.45902344 6.66648438 13.35351562 7.20703125 C14.24748047 7.75746094 15.14144531 8.30789062 16.0625 8.875 C16.96033203 9.41769531 17.85816406 9.96039063 18.78320312 10.51953125 C27.19962009 15.63821458 27.19962009 15.63821458 30 18 C30 18.66 30 19.32 30 20 C31.98 20.33 33.96 20.66 36 21 C36 21.66 36 22.32 36 23 C36.66 23 37.32 23 38 23 C38.33 22.34 38.66 21.68 39 21 C39.68102783 21.41886475 40.36205566 21.83772949 41.0637207 22.26928711 C44.14472893 24.16183511 47.22857027 26.04971672 50.3125 27.9375 C51.38435547 28.59685547 52.45621094 29.25621094 53.56054688 29.93554688 C54.58857422 30.56396484 55.61660156 31.19238281 56.67578125 31.83984375 C57.62364502 32.42113037 58.57150879 33.00241699 59.5480957 33.60131836 C62.01147541 35.11237527 62.01147541 35.11237527 65 36 C65.30208167 47.67422111 65.53262717 59.34750339 65.67355824 71.02484608 C65.74122431 76.44823169 65.83288365 81.8689317 65.98071289 87.29077148 C66.12265949 92.5300421 66.1998313 97.76674184 66.23340416 103.0077877 C66.25730536 105.00031696 66.30398602 106.99271548 66.37449074 108.9841404 C66.93165032 125.38338317 66.93165032 125.38338317 62.19735718 130.60116577 C59.04857253 133.4975166 55.61871662 135.73067172 52 138 C50.29528249 139.33242704 48.60376926 140.68229337 46.9375 142.0625 C46.1434375 142.69027344 45.349375 143.31804687 44.53125 143.96484375 C42.15164962 145.87807183 39.81691362 147.83781365 37.48803711 149.81225586 C32.75084655 153.82294293 27.99539575 157.53403638 22.7421875 160.84375 C20.85364912 162.01425221 20.85364912 162.01425221 19 164 C19 138.26 19 112.52 19 86 C17.68 86 16.36 86 15 86 C15 80.06 15 74.12 15 68 C13.68 67.34 12.36 66.68 11 66 C8.85613228 64.38156251 6.837183 62.75358552 4.8125 61 C4.26658203 60.56816406 3.72066406 60.13632813 3.15820312 59.69140625 C-1.01054533 56.04439707 -1.46055225 53.14505157 -1.87269592 47.7649231 C-2.07766708 43.31314507 -2.03132084 38.88731062 -1.9140625 34.43359375 C-1.89282318 33.47348892 -1.87158386 32.51338409 -1.84970093 31.52418518 C-1.80381625 29.51662294 -1.75492517 27.5091273 -1.703125 25.50170898 C-1.62441837 22.41468725 -1.55767257 19.32756201 -1.4921875 16.24023438 C-1.44601678 14.28383742 -1.3991668 12.32745635 -1.3515625 10.37109375 C-1.33171295 9.44517929 -1.3118634 8.51926483 -1.29141235 7.56529236 C-1.26823944 6.71673172 -1.24506653 5.86817108 -1.22119141 4.99389648 C-1.20263092 4.24462387 -1.18407043 3.49535126 -1.16494751 2.72337341 C-1 1 -1 1 0 0 Z " fill="#0E4EA0" transform="translate(207,147)"/>
<path d="M0 0 C0 47.85 0 95.7 0 145 C-3.6891178 143.52435288 -6.35493983 142.27327354 -9.59765625 140.1640625 C-10.47099609 139.60074219 -11.34433594 139.03742188 -12.24414062 138.45703125 C-13.17419922 137.85246094 -14.10425781 137.24789062 -15.0625 136.625 C-21.51326141 132.4722957 -27.97024035 128.34958266 -34.5769043 124.44824219 C-36.20384846 123.47584594 -37.81613511 122.47853219 -39.41333008 121.45800781 C-43.90498096 118.62287455 -48.08428472 116.55602129 -53.140625 114.8984375 C-60.08508072 112.24562253 -65.39959094 109.77447861 -69 103 C-71.04651577 94.67300558 -70.94037085 86.02343366 -70.875 77.5 C-70.87197876 76.35343933 -70.86895752 75.20687866 -70.86584473 74.02557373 C-70.82625259 70.68824197 -70.7104241 67.36503481 -70.5546875 64.03125 C-70.52597565 63.01282013 -70.49726379 61.99439026 -70.46768188 60.94509888 C-69.9673282 54.05607143 -69.9673282 54.05607143 -67.25491333 51.09481812 C-65.23397357 49.57178638 -63.18700494 48.26929742 -61 47 C-59.6815353 45.96130637 -58.369139 44.91471035 -57.0703125 43.8515625 C-56.42578125 43.325625 -55.78125 42.7996875 -55.1171875 42.2578125 C-54.45976562 41.71898437 -53.80234375 41.18015625 -53.125 40.625 C-51.71117197 39.47106683 -50.29711035 38.31741979 -48.8828125 37.1640625 C-48.21024414 36.61524414 -47.53767578 36.06642578 -46.84472656 35.50097656 C-44.5741012 33.65346403 -42.28960545 31.82392298 -40 30 C-34.94031228 25.96592466 -29.92379875 21.87937666 -24.90478516 17.79492188 C-20.30743914 14.05582 -15.69338443 10.33912176 -11.05078125 6.65625 C-9.18022713 5.14555486 -7.37083859 3.58394621 -5.5625 2 C-3 0 -3 0 0 0 Z " fill="#040F56" transform="translate(272,32)"/>
<path d="M0 0 C0 18.81 0 37.62 0 57 C1.32 57.66 2.64 58.32 4 59 C5.431806 60.02958278 6.83808834 61.09521761 8.22265625 62.1875 C9.00833984 62.80367187 9.79402344 63.41984375 10.60351562 64.0546875 C11.41498047 64.69664062 12.22644531 65.33859375 13.0625 66 C14.67768725 67.27172056 16.29354501 68.5425901 17.91015625 69.8125 C18.62308838 70.37582031 19.33602051 70.93914062 20.07055664 71.51953125 C21.66635859 72.74399576 23.32637945 73.88425297 25 75 C25.36076355 77.13870239 25.36076355 77.13870239 25.34057617 79.81689453 C25.34023628 81.31822433 25.34023628 81.31822433 25.33988953 82.84988403 C25.32440567 83.93325043 25.30892181 85.01661682 25.29296875 86.1328125 C25.28872391 87.23978485 25.28447906 88.3467572 25.28010559 89.48727417 C25.26327214 93.0334271 25.2256108 96.57901797 25.1875 100.125 C25.17245922 102.52473139 25.15876977 104.92447167 25.14648438 107.32421875 C25.1159014 113.21653816 25.05718684 119.10763774 25 125 C15.1 125 5.2 125 -5 125 C-5 129.29 -5 133.58 -5 138 C-8.10586164 136.44706918 -10.12675523 135.22500376 -12.71484375 133.06640625 C-13.40126953 132.49986328 -14.08769531 131.93332031 -14.79492188 131.34960938 C-15.50197266 130.75986328 -16.20902344 130.17011719 -16.9375 129.5625 C-18.33988872 128.39405697 -19.74477644 127.22860569 -21.15234375 126.06640625 C-21.77101318 125.55021729 -22.38968262 125.03402832 -23.02709961 124.50219727 C-24.98123609 122.87114557 -24.98123609 122.87114557 -27.57394409 121.99694824 C-30 120 -30 120 -30.49347401 118.14412594 C-30.7194941 115.60209641 -30.77862258 113.09884004 -30.78979492 110.54663086 C-30.81301315 109.57714508 -30.83623138 108.6076593 -30.8601532 107.60879517 C-30.92819962 104.39393517 -30.95730837 101.18032308 -30.98046875 97.96484375 C-31.00669292 95.7286408 -31.03308791 93.49243985 -31.05964661 91.25624084 C-31.10769776 86.56113561 -31.13289884 81.86646641 -31.14624023 77.17114258 C-31.16803313 71.1692769 -31.27762348 65.17250141 -31.40890026 59.17217159 C-31.49478297 54.54873392 -31.51738518 49.92650707 -31.52297401 45.30233955 C-31.53621946 43.09142591 -31.57261681 40.88052031 -31.6330471 38.67039299 C-32.05898478 21.83621315 -32.05898478 21.83621315 -28.62157822 17.10124969 C-24.8907163 13.47937641 -20.64404841 11.25546368 -16 9 C-14.52933887 8.04469792 -13.06969257 7.07115791 -11.640625 6.0546875 C-10.51271272 5.32456571 -9.38265529 4.59774195 -8.25 3.875 C-7.6621875 3.49085938 -7.074375 3.10671875 -6.46875 2.7109375 C-2.24743304 0 -2.24743304 0 0 0 Z " fill="#1A2E97" transform="translate(107,186)"/>
<path d="M0 0 C0 14.85 0 29.7 0 45 C-3.96 45 -7.92 45 -12 45 C-12 50.28 -12 55.56 -12 61 C-17.94 61 -23.88 61 -30 61 C-30 66.94 -30 72.88 -30 79 C-32.64 79 -35.28 79 -38 79 C-37.98952637 79.94842773 -37.97905273 80.89685547 -37.96826172 81.87402344 C-37.93413292 85.40008991 -37.90907832 88.92598029 -37.89013672 92.45214844 C-37.88009256 93.97691623 -37.86645469 95.50166484 -37.84912109 97.02636719 C-37.82480262 99.22075138 -37.81350111 101.41488042 -37.8046875 103.609375 C-37.79421387 104.92905273 -37.78374023 106.24873047 -37.77294922 107.60839844 C-37.9820725 110.73220559 -38.33394864 112.40580238 -40 115 C-41.40607756 112.18784488 -41.11950486 109.8595578 -41.11352539 106.71435547 C-41.11367142 106.07032776 -41.11381744 105.42630005 -41.1139679 104.76275635 C-41.1132704 102.63086598 -41.10548566 100.49906263 -41.09765625 98.3671875 C-41.09579149 96.89031014 -41.09436786 95.41343216 -41.09336853 93.93655396 C-41.08954792 90.04687801 -41.07972152 86.15723933 -41.06866455 82.26757812 C-41.05844064 78.29948429 -41.05386881 74.33138445 -41.04882812 70.36328125 C-41.03809885 62.57550384 -41.02102789 54.78775714 -41 47 C-41.90363281 47.01160156 -42.80726563 47.02320313 -43.73828125 47.03515625 C-44.91777344 47.04417969 -46.09726563 47.05320312 -47.3125 47.0625 C-48.48425781 47.07410156 -49.65601563 47.08570313 -50.86328125 47.09765625 C-54 47 -54 47 -57 46 C-57 53.59 -57 61.18 -57 69 C-57.33 69 -57.66 69 -58 69 C-58 52.17 -58 35.34 -58 18 C-57.34 18 -56.68 18 -56 18 C-56 18.66 -56 19.32 -56 20 C-55.16275391 20.38091797 -55.16275391 20.38091797 -54.30859375 20.76953125 C-50.76520765 22.65813805 -47.70911141 25.1887997 -44.53515625 27.63671875 C-41.38226609 29.33218665 -40.37208974 28.99061296 -37 28 C-34.93802543 26.78761134 -34.93802543 26.78761134 -33.03125 25.19140625 C-32.30123779 24.61374512 -31.57122559 24.03608398 -30.8190918 23.44091797 C-30.0537915 22.82104004 -29.28849121 22.20116211 -28.5 21.5625 C-26.89219683 20.28481673 -25.28412192 19.00747535 -23.67578125 17.73046875 C-22.88510254 17.09802246 -22.09442383 16.46557617 -21.27978516 15.81396484 C-18.11281368 13.29408927 -14.90424042 10.8308064 -11.6875 8.375 C-8.83283578 6.18828989 -5.9959308 3.99668773 -3.20703125 1.7265625 C-1 0 -1 0 0 0 Z " fill="#1781C8" transform="translate(196,249)"/>
<path d="M0 0 C0 18.48 0 36.96 0 56 C-0.33 56 -0.66 56 -1 56 C-1 54.02 -1 52.04 -1 50 C-3.64 50.33 -6.28 50.66 -9 51 C-8.99214478 51.98395752 -8.99214478 51.98395752 -8.98413086 52.98779297 C-8.96338728 55.95018563 -8.95034824 58.91256303 -8.9375 61.875 C-8.92912109 62.90753906 -8.92074219 63.94007813 -8.91210938 65.00390625 C-8.90727539 66.48310547 -8.90727539 66.48310547 -8.90234375 67.9921875 C-8.89448853 69.35899658 -8.89448853 69.35899658 -8.88647461 70.75341797 C-9 73 -9 73 -10 75 C-12.79173055 75.02690104 -15.58320348 75.04679053 -18.375 75.0625 C-19.1690625 75.07087891 -19.963125 75.07925781 -20.78125 75.08789062 C-26.7734375 75.11328125 -26.7734375 75.11328125 -29 74 C-29 89.18 -29 104.36 -29 120 C-29.33 120 -29.66 120 -30 120 C-30.32499043 107.00469903 -30.57343449 94.01037066 -30.72537041 81.01182747 C-30.79831162 74.97517079 -30.89715479 68.94130193 -31.05615234 62.90625 C-31.20876071 57.07694211 -31.29207347 51.25030692 -31.3282814 45.41915512 C-31.35406647 43.19970489 -31.40442713 40.98039433 -31.48022079 38.76208878 C-32.03561651 21.82670948 -32.03561651 21.82670948 -28.62930298 17.09661484 C-24.90110846 13.46547181 -20.65091882 11.24972989 -16 9 C-14.52911009 8.04505021 -13.06936226 7.07162215 -11.640625 6.0546875 C-10.51271272 5.32456571 -9.38265529 4.59774195 -8.25 3.875 C-7.6621875 3.49085938 -7.074375 3.10671875 -6.46875 2.7109375 C-2.24743304 0 -2.24743304 0 0 0 Z " fill="#4C1F96" transform="translate(107,186)"/>
<path d="M0 0 C5.28 0.33 10.56 0.66 16 1 C16.33 23.44 16.66 45.88 17 69 C15.68 68.34 14.36 67.68 13 67 C13 66.34 13 65.68 13 65 C11.8140625 64.93296875 10.628125 64.8659375 9.40625 64.796875 C4.8301839 64.21380858 1.93431226 62.22006316 -1.5 59.25 C-2.08458984 58.76845459 -2.66917969 58.28690918 -3.27148438 57.79077148 C-4.52771467 56.75444767 -5.77822023 55.71115221 -7.0234375 54.66162109 C-9.79010216 52.3357911 -12.59204494 50.0544565 -15.39648438 47.77441406 C-16.76606656 46.65980052 -18.13214921 45.54086855 -19.49414062 44.41699219 C-20.12513672 43.89911133 -20.75613281 43.38123047 -21.40625 42.84765625 C-22.30923828 42.09186279 -22.30923828 42.09186279 -23.23046875 41.32080078 C-25.1729386 39.77202662 -25.1729386 39.77202662 -28.46875 38.43359375 C-29.3040625 37.63050781 -30.139375 36.82742188 -31 36 C-31 31.71 -31 27.42 -31 23 C-20.77 23 -10.54 23 0 23 C0 15.41 0 7.82 0 0 Z " fill="#0A0E53" transform="translate(139,295)"/>
<path d="M0 0 C0.66 0 1.32 0 2 0 C2.04511719 0.89074219 2.09023437 1.78148437 2.13671875 2.69921875 C3.24022393 6.91850327 5.38316637 8.43773602 8.8125 10.8125 C10.48949244 12.03194517 12.16412129 13.25531001 13.81005859 14.51635742 C16.07084393 16.13442121 16.07084393 16.13442121 19.10009766 17.4309082 C22.83824194 19.4635898 25.85393626 21.28971169 28 25 C30.04439181 33.27168322 29.12172441 42.13265537 28.75 50.5625 C28.68975885 52.93020376 28.63501442 55.29805415 28.5859375 57.66601562 C28.46437056 63.45057577 28.22979441 69.21471297 28 75 C19.75 75 11.5 75 3 75 C2.82598323 70.35437371 2.65831712 65.70867421 2.5 61.0625 C2.46348831 60.003797 2.46348831 60.003797 2.42623901 58.92370605 C2.14268342 50.50313663 1.96039765 42.09367123 2.00390625 33.66796875 C2.0074411 32.9160878 2.01097595 32.16420685 2.01461792 31.38954163 C2.03524161 27.74767964 2.07123902 24.10660647 2.125 20.46508789 C2.13660156 19.15145264 2.14820312 17.83781738 2.16015625 16.484375 C2.17699463 15.32647461 2.19383301 14.16857422 2.21118164 12.97558594 C2.0011585 10.01632353 1.41089435 8.54216443 0 6 C-0.125 2.75 -0.125 2.75 0 0 Z " fill="#060941" transform="translate(104,236)"/>
<path d="M0 0 C5.61 0 11.22 0 17 0 C17.34053741 8.78900849 17.61494681 17.57355967 17.77718258 26.36770248 C17.85509997 30.45256518 17.96048926 34.53264035 18.1315918 38.61474609 C19.30065805 67.22279908 19.30065805 67.22279908 13.66455078 73.88085938 C9.99263405 77.21425364 5.15155107 81 0 81 C0 54.27 0 27.54 0 0 Z " fill="#071D68" transform="translate(231,225)"/>
<path d="M0 0 C0.99 0.495 0.99 0.495 2 1 C2 67 2 133 2 201 C2.66 201.33 3.32 201.66 4 202 C4 205.63 4 209.26 4 213 C8.77958622 215.38979311 14.65626015 214 20 214 C20.33 184.3 20.66 154.6 21 124 C22.485 123.505 22.485 123.505 24 123 C23.99666908 123.82993469 23.99666908 123.82993469 23.99327087 124.67663574 C23.97087367 130.51830387 23.95595243 136.3599595 23.94506836 142.20166016 C23.94008851 144.3719126 23.93330221 146.54216179 23.92456055 148.71240234 C23.88045435 159.95688781 23.95159901 171.11484856 24.77075195 182.33105469 C25.16726659 188.67697794 25.14482139 195.01894209 25.125 201.375 C25.13080078 203.31632812 25.13080078 203.31632812 25.13671875 205.296875 C25.13542969 206.52664062 25.13414063 207.75640625 25.1328125 209.0234375 C25.13168457 210.12606934 25.13055664 211.22870117 25.12939453 212.36474609 C25 215 25 215 24 217 C17.73 217 11.46 217 5 217 C3.51992258 221.44023226 3.8156276 225.78675298 3.8125 230.4375 C3.80025391 231.39205078 3.78800781 232.34660156 3.77539062 233.33007812 C3.77345703 234.25111328 3.77152344 235.17214844 3.76953125 236.12109375 C3.76542236 236.9608374 3.76131348 237.80058105 3.75708008 238.66577148 C4.02389686 241.22962599 4.62760899 242.82812863 6 245 C6.66 245.33 7.32 245.66 8 246 C8 246.66 8 247.32 8 248 C8.70125 248.23589844 9.4025 248.47179687 10.125 248.71484375 C14.6463382 250.73593107 18.20860444 253.93160431 22.0625 257.00390625 C24.95135245 258.96694296 26.63711751 259.45523288 30 260 C29.99214478 258.89434692 29.99214478 258.89434692 29.98413086 257.76635742 C29.8957018 243.27406634 30.00401498 228.84215024 30.64428711 214.36181641 C31.07478789 203.90548204 31.06103823 193.46308698 30.96289062 183.00048828 C30.95451172 181.75380371 30.94613281 180.50711914 30.9375 179.22265625 C30.92589844 178.11672119 30.91429688 177.01078613 30.90234375 175.87133789 C30.98684953 173.38665681 31.27228866 171.36327121 32 169 C32.99 169.33 33.98 169.66 35 170 C34.34 170 33.68 170 33 170 C33 202.34 33 234.68 33 268 C29.1756518 266.47026072 27.36138218 265.7364866 24.43359375 263.27734375 C23.78197266 262.73787109 23.13035156 262.19839844 22.45898438 261.64257812 C21.45834961 260.79856445 21.45834961 260.79856445 20.4375 259.9375 C19.12586766 258.83984997 17.81199975 257.74486669 16.49609375 256.65234375 C15.84073765 256.08275657 15.18538155 255.51316938 14.51016617 254.92632198 C12.02653976 252.89319146 12.02653976 252.89319146 8.98382187 251.49794102 C4.56427728 249.04825214 0.8729009 246.81717101 -0.68537235 241.78805232 C-1.81778455 234.77400441 -1.50143673 227.65822741 -1.36230469 220.57983398 C-1.35891786 218.17459788 -1.3608236 215.76934938 -1.36761475 213.36412048 C-1.37069734 207.52297555 -1.31880189 201.68420396 -1.24236283 195.84360086 C-1.15636507 189.04429369 -1.13860291 182.24531734 -1.12490478 175.44554246 C-1.09868118 163.32086109 -1.01893389 151.19715193 -0.90527344 139.07299805 C-0.79501956 127.29993534 -0.71013137 115.52713728 -0.65917969 103.75366211 C-0.65602701 103.0271997 -0.65287432 102.30073729 -0.64962611 101.55226087 C-0.63396495 97.90758485 -0.61880062 94.26290697 -0.60388327 90.61822784 C-0.47960746 60.41145602 -0.26746617 30.2058633 0 0 Z " fill="#76509E" transform="translate(38,31)"/>
<path d="M0 0 C0 14.85 0 29.7 0 45 C-0.33 45 -0.66 45 -1 45 C-1.33 31.8 -1.66 18.6 -2 5 C-6.12949216 7.06474608 -7.22339833 8.49656663 -10 12 C-11.6827898 13.35153196 -13.41560542 14.64260002 -15.1875 15.875 C-21.84744387 20.59541234 -28.30120034 25.51028081 -34.5625 30.75 C-35.55443359 31.57757813 -35.55443359 31.57757813 -36.56640625 32.421875 C-38.33619958 34.01475143 -38.33619958 34.01475143 -38 37 C-38.33 37.99 -38.66 38.98 -39 40 C-39.0853013 42.87694671 -39.11585645 45.72900182 -39.09765625 48.60546875 C-39.09553383 49.86427605 -39.09553383 49.86427605 -39.09336853 51.14851379 C-39.08777215 53.82821216 -39.07522035 56.5078269 -39.0625 59.1875 C-39.05748453 61.00455608 -39.05292171 62.82161348 -39.04882812 64.63867188 C-39.03780391 69.09248013 -39.02054178 73.54622589 -39 78 C-36.03 78 -33.06 78 -30 78 C-30 78.33 -30 78.66 -30 79 C-32.64 79 -35.28 79 -38 79 C-37.98952637 79.94842773 -37.97905273 80.89685547 -37.96826172 81.87402344 C-37.93413292 85.40008991 -37.90907832 88.92598029 -37.89013672 92.45214844 C-37.88009256 93.97691623 -37.86645469 95.50166484 -37.84912109 97.02636719 C-37.82480262 99.22075138 -37.81350111 101.41488042 -37.8046875 103.609375 C-37.79421387 104.92905273 -37.78374023 106.24873047 -37.77294922 107.60839844 C-37.9820725 110.73220559 -38.33394864 112.40580238 -40 115 C-41.40607756 112.18784488 -41.11950486 109.8595578 -41.11352539 106.71435547 C-41.11367142 106.07032776 -41.11381744 105.42630005 -41.1139679 104.76275635 C-41.1132704 102.63086598 -41.10548566 100.49906263 -41.09765625 98.3671875 C-41.09579149 96.89031014 -41.09436786 95.41343216 -41.09336853 93.93655396 C-41.08954792 90.04687801 -41.07972152 86.15723933 -41.06866455 82.26757812 C-41.05844064 78.29948429 -41.05386881 74.33138445 -41.04882812 70.36328125 C-41.03809885 62.57550384 -41.02102789 54.78775714 -41 47 C-41.90363281 47.01160156 -42.80726563 47.02320313 -43.73828125 47.03515625 C-44.91777344 47.04417969 -46.09726563 47.05320312 -47.3125 47.0625 C-48.48425781 47.07410156 -49.65601563 47.08570313 -50.86328125 47.09765625 C-54 47 -54 47 -57 46 C-57 53.59 -57 61.18 -57 69 C-57.33 69 -57.66 69 -58 69 C-58 52.17 -58 35.34 -58 18 C-57.34 18 -56.68 18 -56 18 C-56 18.66 -56 19.32 -56 20 C-55.16275391 20.38091797 -55.16275391 20.38091797 -54.30859375 20.76953125 C-50.76520765 22.65813805 -47.70911141 25.1887997 -44.53515625 27.63671875 C-41.38226609 29.33218665 -40.37208974 28.99061296 -37 28 C-34.93802543 26.78761134 -34.93802543 26.78761134 -33.03125 25.19140625 C-32.30123779 24.61374512 -31.57122559 24.03608398 -30.8190918 23.44091797 C-30.0537915 22.82104004 -29.28849121 22.20116211 -28.5 21.5625 C-26.89219683 20.28481673 -25.28412192 19.00747535 -23.67578125 17.73046875 C-22.88510254 17.09802246 -22.09442383 16.46557617 -21.27978516 15.81396484 C-18.11281368 13.29408927 -14.90424042 10.8308064 -11.6875 8.375 C-8.83283578 6.18828989 -5.9959308 3.99668773 -3.20703125 1.7265625 C-1 0 -1 0 0 0 Z " fill="#1E3EAC" transform="translate(196,249)"/>
<path d="M0 0 C0.66 0 1.32 0 2 0 C2.30208167 11.67422111 2.53262717 23.34750339 2.67355824 35.02484608 C2.74122431 40.44823169 2.83288365 45.8689317 2.98071289 51.29077148 C3.12265949 56.5300421 3.1998313 61.76674184 3.23340416 67.0077877 C3.25730536 69.00031696 3.30398602 70.99271548 3.37449074 72.9841404 C3.93158828 89.38155698 3.93158828 89.38155698 -0.79605103 94.59677124 C-3.94642142 97.49579224 -7.37906762 99.72849025 -11 102 C-12.7663773 103.37504979 -14.52032123 104.76656297 -16.25 106.1875 C-19.85948478 109 -19.85948478 109 -21 109 C-21 91.84 -21 74.68 -21 57 C-18.83584668 61.32830663 -18.79791283 64.33017466 -18.9375 69 C-19.1812616 75.0775398 -19.1812616 75.0775398 -18 81 C-17.505 80.505 -17.505 80.505 -17 80 C-14.47403741 79.76346477 -11.96892793 79.57826308 -9.4375 79.4375 C-8.37112305 79.37272461 -8.37112305 79.37272461 -7.28320312 79.30664062 C-5.52238088 79.20028223 -3.7612168 79.09961154 -2 79 C-1.90912109 77.17275391 -1.90912109 77.17275391 -1.81640625 75.30859375 C-1.73193597 73.68488723 -1.64729128 72.06118978 -1.5625 70.4375 C-1.52318359 69.63763672 -1.48386719 68.83777344 -1.44335938 68.01367188 C-1.40146484 67.22412109 -1.35957031 66.43457031 -1.31640625 65.62109375 C-1.27974854 64.9036499 -1.24309082 64.18620605 -1.20532227 63.44702148 C-1 61 -1 61 -0.48632812 57.9921875 C0.31671663 52.52842174 0.1224883 47.01301113 0.09765625 41.50390625 C0.0962413 40.31522446 0.09482635 39.12654266 0.09336853 37.90184021 C0.08779114 34.12203406 0.07524275 30.34228811 0.0625 26.5625 C0.05748208 23.9928394 0.05291968 21.42317787 0.04882812 18.85351562 C0.03782911 12.56899003 0.0211135 6.28449932 0 0 Z " fill="#539FCB" transform="translate(270,183)"/>
<path d="M0 0 C0.99 0 1.98 0 3 0 C3.33 3.3 3.66 6.6 4 10 C5.65 10 7.3 10 9 10 C10.18224668 13.54674003 9.89329634 15.97522995 9.5625 19.6875 C9.46066406 20.86699219 9.35882813 22.04648437 9.25390625 23.26171875 C9.17011719 24.16535156 9.08632812 25.06898438 9 26 C8.20207031 26.25523437 7.40414062 26.51046875 6.58203125 26.7734375 C3.58180363 27.82774078 3.58180363 27.82774078 2.6875 31.625 C2.460625 32.73875 2.23375 33.8525 2 35 C1.01 35 0.02 35 -1 35 C-1 34.34 -1 33.68 -1 33 C-1.94875 32.731875 -2.8975 32.46375 -3.875 32.1875 C-7 31 -7 31 -9 28 C-10.64821244 26.96986723 -12.31503702 25.96885372 -14 25 C-16.47532211 22.52467789 -16.38704795 21.36068317 -16.6875 17.9375 C-16.77386719 17.03902344 -16.86023438 16.14054687 -16.94921875 15.21484375 C-16.96597656 14.48394531 -16.98273438 13.75304687 -17 13 C-14.94077598 10.94077598 -10.78291876 11.58572421 -7.9375 11.4375 C-7.17888672 11.39431641 -6.42027344 11.35113281 -5.63867188 11.30664062 C-3.75934562 11.20026367 -1.87969756 11.09960066 0 11 C-0.12568359 9.93458984 -0.12568359 9.93458984 -0.25390625 8.84765625 C-0.35574219 7.92855469 -0.45757812 7.00945312 -0.5625 6.0625 C-0.66691406 5.14597656 -0.77132812 4.22945313 -0.87890625 3.28515625 C-0.91886719 2.53105469 -0.95882812 1.77695312 -1 1 C-0.67 0.67 -0.34 0.34 0 0 Z " fill="#0C3CA9" transform="translate(97,282)"/>
<path d="M0 0 C3.91861536 1.52207143 7.41924234 3.30806605 11.04296875 5.44921875 C11.61147049 5.78492386 12.17997223 6.12062897 12.76570129 6.46650696 C13.96602245 7.17667052 15.16527969 7.88863506 16.36352539 8.60229492 C18.16162686 9.67210633 19.96428754 10.73388673 21.76757812 11.79492188 C37.06590275 20.84165524 37.06590275 20.84165524 42 25 C42 25.66 42 26.32 42 27 C41.34 27 40.68 27 40 27 C40 26.34 40 25.68 40 25 C39.0925 24.9175 38.185 24.835 37.25 24.75 C33.45117101 23.87334716 32.67352483 22.72108985 30 20 C28.34707521 18.89191083 26.65608169 17.83918171 24.9375 16.8359375 C23.97585937 16.27132812 23.01421875 15.70671875 22.0234375 15.125 C20.52683594 14.25875 20.52683594 14.25875 19 13.375 C17.50339844 12.49714844 17.50339844 12.49714844 15.9765625 11.6015625 C12.02809039 9.29387639 8.09938236 7.0286531 4 5 C3.85487496 11.07904088 3.71260323 17.15814014 3.57275391 23.23730469 C3.52499814 25.29689245 3.47651926 27.3564636 3.42724609 29.41601562 C3.00662181 47.03073049 2.61662351 64.58341901 3.73242188 82.1796875 C4.58376893 97.66285261 4.58376893 97.66285261 1.15234375 102.7265625 C0.42144531 103.35304688 -0.30945313 103.97953125 -1.0625 104.625 C-2.16271484 105.60339844 -2.16271484 105.60339844 -3.28515625 106.6015625 C-4.13400391 107.29378906 -4.13400391 107.29378906 -5 108 C-5.33 106.68 -5.66 105.36 -6 104 C-4.78290092 103.30804535 -4.78290092 103.30804535 -3.54121399 102.60211182 C0.1939273 98.77746134 -0.29221128 95.5286333 -0.34057617 90.36621094 C-0.33009247 89.39026978 -0.31960876 88.41432861 -0.30880737 87.40881348 C-0.28001096 84.18367907 -0.28635451 80.95961518 -0.29296875 77.734375 C-0.27985655 75.4980535 -0.26455381 73.26174385 -0.24714661 71.02545166 C-0.20722818 65.13995135 -0.1971017 59.25476036 -0.19311523 53.36914062 C-0.18379677 47.36318538 -0.14639126 41.35741287 -0.11132812 35.3515625 C-0.04668244 23.56771692 -0.01349955 11.78400737 0 0 Z " fill="#353974" transform="translate(203,143)"/>
<path d="M0 0 C1.92088187 1.39468284 3.81581123 2.80894555 5.6875 4.26953125 C7.93785808 6.02688494 7.93785808 6.02688494 10.3125 7.32421875 C12.97680295 9.06077335 14.36991313 10.23649336 16 13 C16.98607887 18.94308612 16.45514092 25.02627548 16 31 C10.72 30.67 5.44 30.34 0 30 C-0.19610428 26.50029284 -0.38212946 23.00052453 -0.5625 19.5 C-0.61857422 18.51773438 -0.67464844 17.53546875 -0.73242188 16.5234375 C-1.01593713 10.85313239 -0.90129458 5.60805516 0 0 Z " fill="#0D196E" transform="translate(206,202)"/>
<path d="M0 0 C0.33 0 0.66 0 1 0 C1.37736666 10.2130731 1.72701899 20.42668347 2.04136372 30.64190197 C2.18819935 35.3853145 2.34454799 40.12801369 2.52270508 44.87036133 C2.69430303 49.44746374 2.84082274 54.02474673 2.9700222 58.60323524 C3.02369841 60.34941646 3.08639048 62.09534468 3.15825844 63.84087181 C3.25744044 66.2873277 3.32444204 68.73272384 3.3840332 71.18041992 C3.42071106 71.90115189 3.45738892 72.62188385 3.49517822 73.36445618 C3.55444258 77.36259683 3.12132845 78.85268457 0.53849792 81.98872375 C-2 84 -2 84 -3 84 C-3 58.26 -3 32.52 -3 6 C-3.99 6 -4.98 6 -6 6 C-6 4.35 -6 2.7 -6 1 C-5.731875 1.639375 -5.46375 2.27875 -5.1875 2.9375 C-4.11332248 5.33131686 -4.11332248 5.33131686 -1 6 C-1.020625 5.195625 -1.04125 4.39125 -1.0625 3.5625 C-1 1 -1 1 0 0 Z " fill="#306EB1" transform="translate(229,227)"/>
<path d="M0 0 C0 14.85 0 29.7 0 45 C-0.33 45 -0.66 45 -1 45 C-1.33 31.8 -1.66 18.6 -2 5 C-6.12949216 7.06474608 -7.22339833 8.49656663 -10 12 C-11.6827898 13.35153196 -13.41560542 14.64260002 -15.1875 15.875 C-21.84744387 20.59541234 -28.30120034 25.51028081 -34.5625 30.75 C-35.55443359 31.57757813 -35.55443359 31.57757813 -36.56640625 32.421875 C-38.33619958 34.01475143 -38.33619958 34.01475143 -38 37 C-38.33 37.99 -38.66 38.98 -39 40 C-39.0853013 42.87694671 -39.11585645 45.72900182 -39.09765625 48.60546875 C-39.0962413 49.44467361 -39.09482635 50.28387848 -39.09336853 51.14851379 C-39.08777215 53.82821216 -39.07522035 56.5078269 -39.0625 59.1875 C-39.05748453 61.00455608 -39.05292171 62.82161348 -39.04882812 64.63867188 C-39.03780391 69.09248013 -39.02054178 73.54622589 -39 78 C-36.03 78 -33.06 78 -30 78 C-30 78.33 -30 78.66 -30 79 C-32.64 79 -35.28 79 -38 79 C-37.98952637 79.94842773 -37.97905273 80.89685547 -37.96826172 81.87402344 C-37.93413292 85.40008991 -37.90907832 88.92598029 -37.89013672 92.45214844 C-37.88009256 93.97691623 -37.86645469 95.50166484 -37.84912109 97.02636719 C-37.82480262 99.22075138 -37.81350111 101.41488042 -37.8046875 103.609375 C-37.78897705 105.5888916 -37.78897705 105.5888916 -37.77294922 107.60839844 C-37.9820725 110.73220559 -38.33394864 112.40580238 -40 115 C-41.50797051 111.98405899 -41.1298834 108.87546375 -41.11352539 105.56860352 C-41.11367142 104.80259827 -41.11381744 104.03659302 -41.1139679 103.24737549 C-41.11326965 100.70785722 -41.10547946 98.16841176 -41.09765625 95.62890625 C-41.09579122 93.86775248 -41.09436772 92.1065982 -41.09336853 90.34544373 C-41.08954561 85.70232722 -41.07972003 81.05924187 -41.06866455 76.4161377 C-41.05846239 71.69344502 -41.05386902 66.97074738 -41.04882812 62.24804688 C-41.03924471 53.94750343 -41.02474183 45.64697994 -41.00672913 37.34645081 C-41.00247527 35.23097029 -41 33.11548479 -41 31 C-39 29.1953125 -39 29.1953125 -36 27 C-34.74819419 26.0414161 -33.49833937 25.08028132 -32.25 24.1171875 C-30.83370504 23.03597126 -29.41702137 21.95526405 -28 20.875 C-26.48427353 19.71758079 -24.96864966 18.5600272 -23.453125 17.40234375 C-22.70353516 16.82983887 -21.95394531 16.25733398 -21.18164062 15.66748047 C-18.0343436 13.26192556 -14.89091236 10.85138353 -11.75 8.4375 C-10.75484375 7.67308594 -9.7596875 6.90867188 -8.734375 6.12109375 C-6.87309266 4.67727045 -5.02980148 3.21001992 -3.203125 1.72265625 C-1 0 -1 0 0 0 Z " fill="#2C68A8" transform="translate(196,249)"/>
<path d="M0 0 C0.99 0 1.98 0 3 0 C3 47.85 3 95.7 3 145 C-0.7054691 143.51781236 -3.40282277 142.24469929 -6.66796875 140.12890625 C-7.55339355 139.55930176 -8.43881836 138.98969727 -9.35107422 138.40283203 C-10.28709473 137.79552246 -11.22311523 137.18821289 -12.1875 136.5625 C-22.0383666 130.22733115 -31.97917715 124.06197925 -42 118 C-40 117 -40 117 -38.23046875 117.453125 C-34.27303148 118.99675254 -30.47359275 120.50335521 -27 123 C-27 123.66 -27 124.32 -27 125 C-26.11699219 125.26425781 -25.23398438 125.52851563 -24.32421875 125.80078125 C-21.10586024 126.9618107 -18.65640403 128.30733954 -15.8125 130.1875 C-14.40484375 131.10789063 -14.40484375 131.10789063 -12.96875 132.046875 C-11.9890625 132.69140625 -11.009375 133.3359375 -10 134 C-7.93960264 135.31579832 -5.87718827 136.62844506 -3.8125 137.9375 C-2.20833333 138.95833333 -0.60416667 139.97916667 1 141 C0.91621094 140.03320312 0.83242188 139.06640625 0.74609375 138.0703125 C0.64425781 136.76835937 0.54242188 135.46640625 0.4375 134.125 C0.28087891 132.21074219 0.28087891 132.21074219 0.12109375 130.2578125 C-0.0381607 127.25453522 0.12603517 124.44322497 0.4853363 121.45889282 C1.08366259 115.76156413 1.13350586 110.12422256 1.11352539 104.39990234 C1.11367142 103.28653503 1.11381744 102.17316772 1.1139679 101.02606201 C1.11327629 97.37933339 1.10551938 93.7326571 1.09765625 90.0859375 C1.0957894 87.54432198 1.09436675 85.0027061 1.09336853 82.46109009 C1.08995235 76.47611431 1.08208666 70.49116069 1.07201904 64.50619376 C1.06079863 57.68626349 1.05533259 50.86633228 1.05032361 44.04639506 C1.03990223 30.03091984 1.02233994 16.01546094 1 2 C0.01 2 -0.98 2 -2 2 C-1.34 1.34 -0.68 0.68 0 0 Z " fill="#5C6586" transform="translate(269,32)"/>
<path d="M0 0 C5.94 0 11.88 0 18 0 C18.60835936 3.92668312 18.95583239 6.22393687 18 10 C14.75139425 13.61142255 10.97668041 16.24154692 7 19 C5.64455078 20.11761719 5.64455078 20.11761719 4.26171875 21.2578125 C2 23 2 23 0 23 C0 15.41 0 7.82 0 0 Z " fill="#0A1E70" transform="translate(253,265)"/>
<path d="M0 0 C0 18.48 0 36.96 0 56 C-0.33 56 -0.66 56 -1 56 C-1 54.02 -1 52.04 -1 50 C-3.64 50.33 -6.28 50.66 -9 51 C-8.98952637 51.65597168 -8.97905273 52.31194336 -8.96826172 52.98779297 C-8.92677497 55.95015658 -8.90069738 58.91245916 -8.875 61.875 C-8.85824219 62.90753906 -8.84148437 63.94007813 -8.82421875 65.00390625 C-8.81777344 65.99003906 -8.81132813 66.97617188 -8.8046875 67.9921875 C-8.79421387 68.90339355 -8.78374023 69.81459961 -8.77294922 70.75341797 C-9 73 -9 73 -11 75 C-11 66.42 -11 57.84 -11 49 C-8.03 49 -5.06 49 -2 49 C-2 34.15 -2 19.3 -2 4 C-3.98 5.32 -5.96 6.64 -8 8 C-9.79016459 9.1066003 -11.58180564 10.21081608 -13.375 11.3125 C-15.25336577 12.53651704 -17.12848194 13.76553823 -19 15 C-19.80953125 15.48855469 -20.6190625 15.97710937 -21.453125 16.48046875 C-25.40528791 19.24556114 -26.79833418 20.92851184 -27.7109375 25.77734375 C-28.04694464 29.52572947 -28.07744293 33.23917754 -28 37 C-28.33 37 -28.66 37 -29 37 C-30.74302192 30.53001741 -31.93103464 24.27112947 -29 18 C-23.04463681 11.93355001 -8.68032532 0 0 0 Z " fill="#453182" transform="translate(107,186)"/>
<path d="M0 0 C0.99 0.33 1.98 0.66 3 1 C2.34 1 1.68 1 1 1 C1 33.34 1 65.68 1 99 C-4 97 -4 97 -5.3125 94.875 C-5.539375 94.25625 -5.76625 93.6375 -6 93 C-4.02 92.01 -4.02 92.01 -2 91 C-2.00523682 90.26289795 -2.01047363 89.5257959 -2.01586914 88.76635742 C-2.1042982 74.27406634 -1.99598502 59.84215024 -1.35571289 45.36181641 C-0.92521211 34.90548204 -0.93896177 24.46308698 -1.03710938 14.00048828 C-1.04548828 12.75380371 -1.05386719 11.50711914 -1.0625 10.22265625 C-1.07410156 9.11672119 -1.08570312 8.01078613 -1.09765625 6.87133789 C-1.01315047 4.38665681 -0.72771134 2.36327121 0 0 Z " fill="#491B83" transform="translate(70,200)"/>
<path d="M0 0 C0.66 0 1.32 0 2 0 C2 33 2 66 2 100 C1.01 100 0.02 100 -1 100 C-0.67 67 -0.34 34 0 0 Z " fill="#D7C7E8" transform="translate(71,201)"/>
<path d="M0 0 C0.66 0 1.32 0 2 0 C2 0.66 2 1.32 2 2 C2.54140625 2.2475 3.0828125 2.495 3.640625 2.75 C6.5282849 4.27988604 9.09776018 6.09150997 11.75 8 C12.73484375 8.70125 13.7196875 9.4025 14.734375 10.125 C15.48203125 10.74375 16.2296875 11.3625 17 12 C17 12.66 17 13.32 17 14 C14.28626162 13.02003892 12.18373822 12.15033127 9.9375 10.3125 C9.298125 9.879375 8.65875 9.44625 8 9 C6.68 9.33 5.36 9.66 4 10 C4.33 15.61 4.66 21.22 5 27 C8.96 27.33 12.92 27.66 17 28 C17 28.33 17 28.66 17 29 C14.89590361 29.02701408 12.79170822 29.04640223 10.6875 29.0625 C9.51574219 29.07410156 8.34398437 29.08570313 7.13671875 29.09765625 C4 29 4 29 1 28 C1 35.59 1 43.18 1 51 C0.67 51 0.34 51 0 51 C0 34.17 0 17.34 0 0 Z " fill="#3D4591" transform="translate(138,267)"/>
<path d="M0 0 C0.66 0 1.32 0 2 0 C1.99777939 0.55328979 1.99555878 1.10657959 1.99327087 1.67663574 C1.97087367 7.51830387 1.95595243 13.3599595 1.94506836 19.20166016 C1.94008851 21.3719126 1.93330221 23.54216179 1.92456055 25.71240234 C1.8800251 37.06632273 1.90099914 48.35314029 2.77734375 59.67773438 C3.1196609 64.78546662 3.08720828 69.88378064 3 75 C2.01 75.495 2.01 75.495 1 76 C0.505 69.565 0.505 69.565 0 63 C-0.33 63 -0.66 63 -1 63 C-1.02312737 54.93347826 -1.04091709 46.86697028 -1.05181217 38.80042362 C-1.05704014 35.05516963 -1.06413622 31.30993824 -1.07543945 27.56469727 C-1.08627141 23.95318313 -1.09227749 20.34169079 -1.09487724 16.73016167 C-1.09673094 15.34939671 -1.10035049 13.968633 -1.10573006 12.58787727 C-1.11294447 10.66024048 -1.11340809 8.73258193 -1.11352539 6.80493164 C-1.115746 5.70572891 -1.11796661 4.60652618 -1.12025452 3.47401428 C-1 1 -1 1 0 0 Z " fill="#47138D" transform="translate(60,154)"/>
<path d="M0 0 C0.33 0 0.66 0 1 0 C1 4.62 1 9.24 1 14 C-4.28 14 -9.56 14 -15 14 C-15 19.94 -15 25.88 -15 32 C-17.97 32 -20.94 32 -24 32 C-24 42.56 -24 53.12 -24 64 C-24.33 64 -24.66 64 -25 64 C-25 46.51 -25 29.02 -25 11 C-24.67 11 -24.34 11 -24 11 C-23.63752129 13.60325616 -23.28472345 16.20720402 -22.9375 18.8125 C-22.83373047 19.55048828 -22.72996094 20.28847656 -22.62304688 21.04882812 C-22.17913434 24.43174779 -21.90685008 26.72055025 -23 30 C-21.35 30 -19.7 30 -18 30 C-18.01160156 29.43152344 -18.02320313 28.86304688 -18.03515625 28.27734375 C-18.09223194 23.39329516 -17.81956772 18.81496035 -17 14 C-11.73621257 12.24540419 -7.53747735 11.90452625 -2 12 C-0.26043342 10.26043342 -0.62809614 7.8063378 -0.4375 5.4375 C-0.35371094 4.42558594 -0.26992187 3.41367187 -0.18359375 2.37109375 C-0.09271484 1.19740234 -0.09271484 1.19740234 0 0 Z " fill="#2F93D3" transform="translate(181,295)"/>
<path d="M0 0 C0.33 0 0.66 0 1 0 C1 9.24 1 18.48 1 28 C-2.70811168 26.51675533 -5.61285602 25.14456038 -8.95703125 23.09375 C-9.89796631 22.51898926 -10.83890137 21.94422852 -11.80834961 21.35205078 C-12.79971924 20.74087402 -13.79108887 20.12969727 -14.8125 19.5 C-15.82900635 18.87722168 -16.8455127 18.25444336 -17.89282227 17.61279297 C-26.292923 12.45826089 -34.66098777 7.25273049 -43 2 C-41 1 -41 1 -39.23046875 1.453125 C-35.27303148 2.99675254 -31.47359275 4.50335521 -28 7 C-28 7.66 -28 8.32 -28 9 C-27.11699219 9.26425781 -26.23398438 9.52851563 -25.32421875 9.80078125 C-22.10586024 10.9618107 -19.65640403 12.30733954 -16.8125 14.1875 C-15.40484375 15.10789063 -15.40484375 15.10789063 -13.96875 16.046875 C-12.9890625 16.69140625 -12.009375 17.3359375 -11 18 C-8.93960264 19.31579832 -6.87718827 20.62844506 -4.8125 21.9375 C-2.40625 23.46875 -2.40625 23.46875 0 25 C-0.08378906 24.03320312 -0.16757812 23.06640625 -0.25390625 22.0703125 C-0.84139307 14.55940512 -1.14545281 7.48949917 0 0 Z " fill="#263B78" transform="translate(270,148)"/>
<path d="M0 0 C2.0625 0.4375 2.0625 0.4375 4 1 C3.36191406 1.56847656 2.72382813 2.13695313 2.06640625 2.72265625 C1.24011719 3.49480469 0.41382813 4.26695313 -0.4375 5.0625 C-1.26121094 5.81660156 -2.08492187 6.57070312 -2.93359375 7.34765625 C-7.09222308 12.68548105 -6.1367096 20.13980643 -6.09765625 26.65234375 C-6.0962413 27.55247696 -6.09482635 28.45261017 -6.09336853 29.38002014 C-6.0878066 32.23254837 -6.07526127 35.08499581 -6.0625 37.9375 C-6.05748008 39.88085824 -6.05291803 41.82421771 -6.04882812 43.76757812 C-6.03784966 48.5117495 -6.02061153 53.25586109 -6 58 C-6.99 57.67 -7.98 57.34 -9 57 C-9.20313659 49.98959973 -9.34305897 42.97995987 -9.43945312 35.96728516 C-9.47964151 33.58288209 -9.53420392 31.19867565 -9.60351562 28.81494141 C-9.70076766 25.38394688 -9.74597374 21.9555605 -9.78125 18.5234375 C-9.82254028 17.46071625 -9.86383057 16.397995 -9.90637207 15.30307007 C-9.91077118 8.01851507 -9.91077118 8.01851507 -7.20092773 4.98809814 C-5.1958735 3.47938379 -3.19388981 2.21137706 -1 1 C-0.67 0.67 -0.34 0.34 0 0 Z " fill="#333464" transform="translate(212,78)"/>
<path d="M0 0 C0.66 0.33 1.32 0.66 2 1 C0.68 2.65 -0.64 4.3 -2 6 C-1.67 6.66 -1.34 7.32 -1 8 C-1.33 8.66 -1.66 9.32 -2 10 C-2.08691001 12.84429357 -2.11553802 15.66379176 -2.09765625 18.5078125 C-2.0962413 19.34843231 -2.09482635 20.18905212 -2.09336853 21.05514526 C-2.08776237 23.74513275 -2.07520886 26.43503759 -2.0625 29.125 C-2.05748579 30.94661338 -2.05292275 32.76822807 -2.04882812 34.58984375 C-2.03779094 39.05992777 -2.0205222 43.52994986 -2 48 C0.97 48 3.94 48 7 48 C7 48.33 7 48.66 7 49 C4.36 49 1.72 49 -1 49 C-0.98952637 49.94842773 -0.97905273 50.89685547 -0.96826172 51.87402344 C-0.93413292 55.40008991 -0.90907832 58.92598029 -0.89013672 62.45214844 C-0.88009256 63.97691623 -0.86645469 65.50166484 -0.84912109 67.02636719 C-0.82480262 69.22075138 -0.81350111 71.41488042 -0.8046875 73.609375 C-0.78897705 75.5888916 -0.78897705 75.5888916 -0.77294922 77.60839844 C-0.9820725 80.73220559 -1.33394864 82.40580238 -3 85 C-4.50424602 81.99150795 -4.16476369 78.88529631 -4.17700195 75.58447266 C-4.18357315 74.8200737 -4.19014435 74.05567474 -4.19691467 73.26811218 C-4.21665824 70.73342801 -4.22831173 68.19880307 -4.23828125 65.6640625 C-4.24235678 64.79931683 -4.2464323 63.93457115 -4.25063133 63.04362106 C-4.27149523 58.46788521 -4.28579632 53.89217939 -4.29516602 49.31640625 C-4.30623946 44.58601373 -4.34064896 39.85609047 -4.38033772 35.12586403 C-4.40645721 31.49190382 -4.41485361 27.8580563 -4.41844749 24.22401047 C-4.42332449 22.48006389 -4.43497007 20.73612271 -4.45348549 18.99226761 C-4.4777816 16.55256978 -4.47693003 14.11409766 -4.4699707 11.67431641 C-4.48278076 10.95313126 -4.49559082 10.23194611 -4.50878906 9.48890686 C-4.47203085 5.95630643 -4.2428189 4.29669488 -1.97062683 1.52035522 C-1.32031998 1.018638 -0.67001312 0.51692078 0 0 Z " fill="#255CAA" transform="translate(159,279)"/>
<path d="M0 0 C0.33 0 0.66 0 1 0 C1 15.51 1 31.02 1 47 C-0.485 47.495 -0.485 47.495 -2 48 C-2.049623 42.28915661 -2.08582503 36.57844015 -2.10986328 30.86743164 C-2.1198898 28.92665418 -2.13351443 26.9858917 -2.15087891 25.04516602 C-2.17527489 22.24752084 -2.18651681 19.45007629 -2.1953125 16.65234375 C-2.20563507 15.7916478 -2.21595764 14.93095184 -2.22659302 14.04417419 C-2.22752775 8.96820807 -1.64042491 4.81058863 0 0 Z " fill="#41A6E0" transform="translate(229,261)"/>
<path d="M0 0 C0.33 0 0.66 0 1 0 C1.01458252 1.14476807 1.02916504 2.28953613 1.04418945 3.46899414 C1.10240761 7.73899697 1.17963828 12.00848538 1.26245117 16.27807617 C1.29559026 18.12174088 1.32365613 19.96550436 1.34643555 21.80932617 C1.38018512 24.46836208 1.43250966 27.12650187 1.48828125 29.78515625 C1.49467117 30.60210464 1.5010611 31.41905304 1.50764465 32.26075745 C1.64139994 37.53335609 2.50574406 41.32379572 5 46 C5.66 46.33 6.32 46.66 7 47 C7 47.66 7 48.32 7 49 C7.69738281 49.23847656 8.39476562 49.47695313 9.11328125 49.72265625 C12.52981246 51.23443664 15.20939209 53.18449663 18.1875 55.4375 C19.23292969 56.21996094 20.27835938 57.00242187 21.35546875 57.80859375 C24 60 24 60 26 63 C21.74585057 63 21.34899434 62.87323345 18.3203125 60.33203125 C17.63839844 59.76806641 16.95648438 59.20410156 16.25390625 58.62304688 C15.55136719 58.02556641 14.84882812 57.42808594 14.125 56.8125 C13.43019531 56.23435547 12.73539063 55.65621094 12.01953125 55.06054688 C10.70488691 53.96500993 9.39344046 52.86561457 8.08642578 51.76098633 C5.89687138 49.83582163 5.89687138 49.83582163 2.79003906 47.9375 C0.80207667 46.26835145 0.0876903 45.36711098 -0.52090454 42.81925964 C-0.69508599 40.08259401 -0.67448776 37.40877921 -0.5859375 34.66796875 C-0.57744781 33.67622147 -0.56895813 32.68447418 -0.56021118 31.66267395 C-0.52669358 28.5031654 -0.45141516 25.34623361 -0.375 22.1875 C-0.34489838 20.04235463 -0.31752292 17.89716916 -0.29296875 15.75195312 C-0.22690856 10.5004268 -0.12657785 5.25039748 0 0 Z " fill="#652D8C" transform="translate(39,230)"/>
<path d="M0 0 C0.33 0 0.66 0 1 0 C1 3.63 1 7.26 1 11 C1.99 11.33 2.98 11.66 4 12 C3.01 12.33 2.02 12.66 1 13 C1.33 13.99 1.66 14.98 2 16 C2.11730844 17.34268792 2.18593516 18.69001202 2.22119141 20.03735352 C2.24436432 20.84572159 2.26753723 21.65408966 2.29141235 22.48695374 C2.3112619 23.35879807 2.33111145 24.2306424 2.3515625 25.12890625 C2.37471527 26.03317856 2.39786804 26.93745087 2.42172241 27.86912537 C2.46936286 29.78647278 2.51459681 31.70388126 2.55761719 33.62133789 C2.62418934 36.52711576 2.70220997 39.43242853 2.78125 42.33789062 C2.82622152 44.20571243 2.87051331 46.07355074 2.9140625 47.94140625 C2.93796051 48.79908096 2.96185852 49.65675568 2.98648071 50.54042053 C3.10610411 56.42942685 2.70699958 62.15365729 2 68 C0 66 0 66 -0.24050903 63.25387573 C-0.23606781 62.08583405 -0.23162659 60.91779236 -0.22705078 59.71435547 C-0.22734283 59.07032776 -0.22763489 58.42630005 -0.22793579 57.76275635 C-0.22654074 55.63076373 -0.21097174 53.49911918 -0.1953125 51.3671875 C-0.19158298 49.89031159 -0.18873572 48.41343322 -0.18673706 46.93655396 C-0.17909574 43.04682602 -0.15944308 39.15724712 -0.1373291 35.26757812 C-0.11688135 31.29949968 -0.10773764 27.33139718 -0.09765625 23.36328125 C-0.07619756 15.57545284 -0.04205572 7.78774729 0 0 Z " fill="#451B73" transform="translate(39,164)"/>
<path d="M0 0 C0.33 0 0.66 0 1 0 C1 5.28 1 10.56 1 16 C-0.65 16 -2.3 16 -4 16 C-4 20.29 -4 24.58 -4 29 C-7.09327591 27.45336205 -9.1785123 26.19657048 -11.78515625 24.06640625 C-12.82833008 23.2165918 -12.82833008 23.2165918 -13.89257812 22.34960938 C-14.60865234 21.75986328 -15.32472656 21.17011719 -16.0625 20.5625 C-16.78244141 19.97662109 -17.50238281 19.39074219 -18.24414062 18.78710938 C-21.29190227 16.29400073 -24.25291932 13.82618648 -27 11 C-25.53775201 11.42423244 -24.08026588 11.86490245 -22.625 12.3125 C-21.81289062 12.55613281 -21.00078125 12.79976563 -20.1640625 13.05078125 C-18 14 -18 14 -16 17 C-14.03247172 18.06246527 -12.03412421 19.07137808 -10 20 C-10 20.66 -10 21.32 -10 22 C-9.01 22 -8.02 22 -7 22 C-6.67 19.69 -6.34 17.38 -6 15 C-4.35 14.34 -2.7 13.68 -1 13 C-0.67 8.71 -0.34 4.42 0 0 Z " fill="#193C89" transform="translate(106,295)"/>
<path d="M0 0 C0.99 0.33 1.98 0.66 3 1 C3 1.66 3 2.32 3 3 C2.34 3 1.68 3 1 3 C1.16298584 4.23733887 1.32597168 5.47467773 1.49389648 6.74951172 C2.35963411 15.47331429 2.12256294 24.25149739 2.09765625 33.0078125 C2.0957884 34.94408125 2.09436623 36.88035048 2.09336853 38.81661987 C2.08957228 43.88327364 2.07976705 48.9498982 2.06866455 54.01654053 C2.05838789 59.198523 2.05385757 64.38051025 2.04882812 69.5625 C2.03814188 79.70834608 2.02110066 89.8541706 2 100 C1.34 100 0.68 100 0 100 C0 67 0 34 0 0 Z " fill="#14103B" transform="translate(39,32)"/>
<path d="M0 0 C2.15697793 4.31395585 2.20246279 7.28479756 2.0625 11.9375 C1.87477471 17.1814596 1.87477471 17.1814596 2.48901367 22.37255859 C3.46943198 27.41377303 3.22687244 32.56763724 3.25 37.6875 C3.270625 38.84056641 3.29125 39.99363281 3.3125 41.18164062 C3.31765625 42.28056641 3.3228125 43.37949219 3.328125 44.51171875 C3.3374707 45.51678467 3.34681641 46.52185059 3.35644531 47.55737305 C3.23881836 48.36343994 3.12119141 49.16950684 3 50 C2.01 50.66 1.02 51.32 0 52 C0 34.84 0 17.68 0 0 Z " fill="#389FDB" transform="translate(249,240)"/>
<path d="M0 0 C6 4 6 4 6.68115234 6.10644531 C6.634021 7.20617676 6.634021 7.20617676 6.5859375 8.328125 C6.55693359 9.52695313 6.55693359 9.52695313 6.52734375 10.75 C6.47707031 11.575 6.42679688 12.4 6.375 13.25 C6.34792969 14.09046875 6.32085937 14.9309375 6.29296875 15.796875 C6.22244109 17.86568634 6.11482367 19.93317393 6 22 C4.02 22 2.04 22 0 22 C0 14.74 0 7.48 0 0 Z " fill="#102C86" transform="translate(216,211)"/>
<path d="M0 0 C0.33 0 0.66 0 1 0 C2.05643338 13.82307428 2.31566192 27.64281263 2.5625 41.5 C2.60580311 43.78776643 2.64942064 46.07552694 2.69335938 48.36328125 C2.79919304 53.90879113 2.90116387 59.45436122 3 65 C2.34 65 1.68 65 1 65 C0.67 50.81 0.34 36.62 0 22 C-0.66 23.32 -1.32 24.64 -2 26 C-2.05799124 22.22923111 -2.09359306 18.45857666 -2.125 14.6875 C-2.14175781 13.61564453 -2.15851563 12.54378906 -2.17578125 11.43945312 C-2.18222656 10.41142578 -2.18867188 9.38339844 -2.1953125 8.32421875 C-2.20578613 7.37635498 -2.21625977 6.42849121 -2.22705078 5.4519043 C-2 3 -2 3 0 0 Z " fill="#3385C5" transform="translate(229,242)"/>
<path d="M0 0 C0 0.99 0 1.98 0 3 C-1.96526066 4.48722429 -3.89229483 5.7337587 -6 7 C-9.7135687 9.26657694 -13.36831583 11.60452471 -17 14 C-17.80953125 14.48855469 -18.6190625 14.97710937 -19.453125 15.48046875 C-23.40528791 18.24556114 -24.79833418 19.92851184 -25.7109375 24.77734375 C-26.04694464 28.52572947 -26.07744293 32.23917754 -26 36 C-26.33 36 -26.66 36 -27 36 C-28.58943938 29.56453654 -29.75202537 23.25179672 -27 17 C-21.57321476 11.24382126 -8.04922212 0 0 0 Z " fill="#42247B" transform="translate(105,187)"/>
<path d="M0 0 C0.33 0 0.66 0 1 0 C1.31134287 4.05622219 1.61424162 8.11297902 1.90942383 12.17041016 C2.01096009 13.54981352 2.11477806 14.92905095 2.22094727 16.30810547 C2.37339392 18.2934905 2.51688268 20.27955692 2.66015625 22.265625 C2.74918213 23.45961914 2.83820801 24.65361328 2.92993164 25.88378906 C2.99002006 28.55615326 2.82959941 30.48672178 2 33 C2.66 33.33 3.32 33.66 4 34 C3.67 34.66 3.34 35.32 3 36 C8.94 35.505 8.94 35.505 15 35 C15.33 30.38 15.66 25.76 16 21 C16.33 21 16.66 21 17 21 C17 26.28 17 31.56 17 37 C11.39 37 5.78 37 0 37 C0 24.79 0 12.58 0 0 Z " fill="#59279D" transform="translate(78,223)"/>
<path d="M0 0 C0.66 0 1.32 0 2 0 C3.2398524 10.16236162 3.2398524 10.16236162 3 14 C2.67 14.33 2.34 14.66 2 15 C1.87709282 16.65644366 1.82216092 18.31798993 1.79467773 19.97875977 C1.77473251 21.03978409 1.75478729 22.10080841 1.73423767 23.19398499 C1.71752518 24.348134 1.70081268 25.50228302 1.68359375 26.69140625 C1.66281265 27.86638168 1.64203156 29.04135712 1.62062073 30.25193787 C1.55499876 34.02206324 1.4961817 37.79226082 1.4375 41.5625 C1.3943268 44.11133573 1.35071292 46.66016403 1.30664062 49.20898438 C1.19930455 55.47257892 1.0975621 61.73624601 1 68 C0.67 68 0.34 68 0 68 C0 45.56 0 23.12 0 0 Z " fill="#226CB2" transform="translate(248,225)"/>
<path d="M0 0 C0.33 0 0.66 0 1 0 C1 3.63 1 7.26 1 11 C-2.63 11 -6.26 11 -10 11 C-10 16.28 -10 21.56 -10 27 C-15.94 27 -21.88 27 -28 27 C-28 26.67 -28 26.34 -28 26 C-22.72 26 -17.44 26 -12 26 C-12.07903295 20.82425198 -12.07903295 20.82425198 -12.18017578 15.64892578 C-12.19477217 13.76504951 -12.09943482 11.88130688 -12 10 C-10 8 -10 8 -8.08984375 7.83984375 C-7.37957031 7.87207031 -6.66929687 7.90429688 -5.9375 7.9375 C-4.638125 7.958125 -3.33875 7.97875 -2 8 C-0.03177114 6.03177114 -0.33751619 2.65191291 0 0 Z " fill="#297ABF" transform="translate(194,283)"/>
<path d="M0 0 C3.83127181 1.41894106 7.20997383 3.19968319 10.7109375 5.30078125 C11.79117188 5.94853516 12.87140625 6.59628906 13.984375 7.26367188 C15.10328125 7.93978516 16.2221875 8.61589844 17.375 9.3125 C18.48617187 9.97701172 19.59734375 10.64152344 20.7421875 11.32617188 C32.29741048 18.27993999 32.29741048 18.27993999 37 22 C37 22.66 37 23.32 37 24 C36.34 24 35.68 24 35 24 C35 23.34 35 22.68 35 22 C34.0925 21.9175 33.185 21.835 32.25 21.75 C28.45033021 20.87315313 27.67436811 19.72189871 25 17 C23.33532101 15.88044182 21.63260641 14.81604366 19.90234375 13.80078125 C18.93619141 13.23166016 17.97003906 12.66253906 16.97460938 12.07617188 C15.47124023 11.2031543 15.47124023 11.2031543 13.9375 10.3125 C12.93138672 9.71888672 11.92527344 9.12527344 10.88867188 8.51367188 C5.6275627 5.36372436 5.6275627 5.36372436 0 3 C0 2.01 0 1.02 0 0 Z " fill="#1B205F" transform="translate(208,146)"/>
<path d="M0 0 C0.33 0 0.66 0 1 0 C1 9.24 1 18.48 1 28 C-3.08078416 26.36768634 -6.17484317 24.7416683 -9.8125 22.375 C-10.78832031 21.74335938 -11.76414062 21.11171875 -12.76953125 20.4609375 C-13.50558594 19.97882813 -14.24164063 19.49671875 -15 19 C-13 18 -13 18 -10.9765625 18.671875 C-10.20054687 19.02765625 -9.42453125 19.3834375 -8.625 19.75 C-7.85414063 20.09546875 -7.08328125 20.4409375 -6.2890625 20.796875 C-3.98941151 22.00556528 -2.03100983 23.38632095 0 25 C-0.08378906 24.03320312 -0.16757812 23.06640625 -0.25390625 22.0703125 C-0.84139307 14.55940512 -1.14545281 7.48949917 0 0 Z " fill="#1F4682" transform="translate(270,148)"/>
<path d="M0 0 C0.33 0 0.66 0 1 0 C1.66 6.27 2.32 12.54 3 19 C2.34 19.33 1.68 19.66 1 20 C1 30.89 1 41.78 1 53 C0.67 53 0.34 53 0 53 C0 35.51 0 18.02 0 0 Z " fill="#398DD6" transform="translate(156,306)"/>
<path d="M0 0 C0.99 0 1.98 0 3 0 C3 6.6 3 13.2 3 20 C2.01 20.33 1.02 20.66 0 21 C0 14.07 0 7.14 0 0 Z " fill="#73CCF2" transform="translate(227,288)"/>
<path d="M0 0 C0.66 0 1.32 0 2 0 C2.12375 0.94875 2.2475 1.8975 2.375 2.875 C2.71687177 6.08667191 2.71687177 6.08667191 5 8 C5.13525391 10.88916016 5.13525391 10.88916016 4.9765625 14.5390625 C4.925 15.84101563 4.8734375 17.14296875 4.8203125 18.484375 C4.75543042 19.86459379 4.69032333 21.24480202 4.625 22.625 C4.56676301 24.01298149 4.50945967 25.4010025 4.453125 26.7890625 C4.31128555 30.19320926 4.15983765 33.59665846 4 37 C3.67 37 3.34 37 3 37 C2.98018066 36.20303711 2.96036133 35.40607422 2.93994141 34.58496094 C2.84466752 30.97297528 2.73499693 27.36156601 2.625 23.75 C2.5940625 22.49574219 2.563125 21.24148438 2.53125 19.94921875 C2.49257812 18.74394531 2.45390625 17.53867188 2.4140625 16.296875 C2.3826416 15.18666992 2.3512207 14.07646484 2.31884766 12.93261719 C2.00715688 10.06582574 1.3512137 8.49010343 0 6 C-0.125 2.75 -0.125 2.75 0 0 Z " fill="#0D0B58" transform="translate(104,236)"/>
<path d="M0 0 C0.99 0 1.98 0 3 0 C3.33 3.3 3.66 6.6 4 10 C5.65 10 7.3 10 9 10 C9.33 10.66 9.66 11.32 10 12 C5.38 12 0.76 12 -4 12 C-2.68 11.67 -1.36 11.34 0 11 C-0.08378906 10.28972656 -0.16757813 9.57945312 -0.25390625 8.84765625 C-0.35574219 7.92855469 -0.45757812 7.00945312 -0.5625 6.0625 C-0.66691406 5.14597656 -0.77132812 4.22945313 -0.87890625 3.28515625 C-0.91886719 2.53105469 -0.95882812 1.77695312 -1 1 C-0.67 0.67 -0.34 0.34 0 0 Z " fill="#3740B9" transform="translate(97,282)"/>
<path d="M0 0 C0.66 0 1.32 0 2 0 C2 11.55 2 23.1 2 35 C-0.5150735 31.22738975 -0.45229814 28.01171764 -0.625 23.625 C-0.66222168 22.82586182 -0.69944336 22.02672363 -0.73779297 21.20336914 C-1.3502964 7.08897561 -1.3502964 7.08897561 -1 1 C-0.67 0.67 -0.34 0.34 0 0 Z " fill="#321077" transform="translate(60,154)"/>
<path d="M0 0 C9.57 0 19.14 0 29 0 C29 0.33 29 0.66 29 1 C28.22809326 1.0501123 27.45618652 1.10022461 26.66088867 1.15185547 C23.16907794 1.38371401 19.67835522 1.62919096 16.1875 1.875 C14.97255859 1.95363281 13.75761719 2.03226562 12.50585938 2.11328125 C11.34248047 2.19707031 10.17910156 2.28085937 8.98046875 2.3671875 C7.90692139 2.44050293 6.83337402 2.51381836 5.72729492 2.58935547 C2.78824373 2.83449127 2.78824373 2.83449127 0 5 C0 3.35 0 1.7 0 0 Z " fill="#0A0C3E" transform="translate(109,318)"/>
<path d="M0 0 C1.75687372 1.05109514 3.50523126 2.11643123 5.25 3.1875 C6.22453125 3.77917969 7.1990625 4.37085938 8.203125 4.98046875 C11.06737409 7.04864861 12.93467302 9.15279924 15 12 C10.01405953 12 7.93372258 9.99555463 4.25 7 C3.64800781 6.52304687 3.04601563 6.04609375 2.42578125 5.5546875 C0.94365221 4.37839461 -0.52910943 3.19031607 -2 2 C-1.34 1.34 -0.68 0.68 0 0 Z " fill="#6B2899" transform="translate(50,281)"/>
<path d="M0 0 C0.33 0 0.66 0 1 0 C1 5.28 1 10.56 1 16 C-0.65 16 -2.3 16 -4 16 C-4 20.29 -4 24.58 -4 29 C-4.99 28.67 -5.98 28.34 -7 28 C-6.34 27.67 -5.68 27.34 -5 27 C-5.33 23.04 -5.66 19.08 -6 15 C-4.35 14.34 -2.7 13.68 -1 13 C-0.67 8.71 -0.34 4.42 0 0 Z " fill="#3758A0" transform="translate(106,295)"/>
<path d="M0 0 C-11.33712984 9 -11.33712984 9 -18 9 C-15.18024053 6.69292407 -12.31675815 4.46104523 -9.375 2.3125 C-8.80523437 1.89613281 -8.23546875 1.47976563 -7.6484375 1.05078125 C-4.65427641 -0.85781907 -3.40332926 -1.13444309 0 0 Z " fill="#2C6CA8" transform="translate(173,271)"/>
<path d="M0 0 C0.99 0.33 1.98 0.66 3 1 C3 1.66 3 2.32 3 3 C2.34 3 1.68 3 1 3 C1.0714624 3.59280762 1.1429248 4.18561523 1.21655273 4.79638672 C1.93738278 11.26434122 2.12187361 17.62130583 2.0625 24.125 C2.05798828 25.08148438 2.05347656 26.03796875 2.04882812 27.0234375 C2.03720017 29.34902758 2.02086102 31.6744776 2 34 C1.01 34.495 1.01 34.495 0 35 C0 23.45 0 11.9 0 0 Z " fill="#0C0D2A" transform="translate(39,32)"/>
<path d="M0 0 C6.53682343 0.61668146 6.53682343 0.61668146 8.8125 2.5 C9.204375 2.995 9.59625 3.49 10 4 C10.66 4.33 11.32 4.66 12 5 C12.33 3.68 12.66 2.36 13 1 C13.33 2.65 13.66 4.3 14 6 C11.80078125 7.20703125 11.80078125 7.20703125 9 8 C6.54296875 6.69921875 6.54296875 6.69921875 4.1875 4.6875 C3.39730469 4.03136719 2.60710937 3.37523437 1.79296875 2.69921875 C1.20128906 2.13847656 0.60960937 1.57773437 0 1 C0 0.67 0 0.34 0 0 Z " fill="#1C1D54" transform="translate(145,359)"/>
<path d="M0 0 C0.33 0 0.66 0 1 0 C1.0809723 2.43816585 1.14046972 4.87364384 1.1875 7.3125 C1.22520508 8.34793945 1.22520508 8.34793945 1.26367188 9.40429688 C1.33834499 14.55674183 1.33834499 14.55674183 -0.51171875 16.98046875 C-1.24841797 17.48513672 -1.24841797 17.48513672 -2 18 C-2.02725341 16.2709226 -2.04650987 14.54171824 -2.0625 12.8125 C-2.07410156 11.84957031 -2.08570313 10.88664063 -2.09765625 9.89453125 C-1.97719121 6.3239476 -1.60559937 3.21119875 0 0 Z " fill="#2D78C3" transform="translate(229,227)"/>
<path d="M0 0 C0.66 0.33 1.32 0.66 2 1 C2.04241723 3.33294775 2.04092937 5.66702567 2 8 C1.67 8.33 1.34 8.66 1 9 C0.76321284 11.69235776 0.57801975 14.36498156 0.4375 17.0625 C0.39431641 17.82111328 0.35113281 18.57972656 0.30664062 19.36132812 C0.20026367 21.24065438 0.09960066 23.12030244 0 25 C-0.33 25 -0.66 25 -1 25 C-1.02908357 21.58335127 -1.04682691 18.1667345 -1.0625 14.75 C-1.07087891 13.78191406 -1.07925781 12.81382812 -1.08789062 11.81640625 C-1.09111328 10.88183594 -1.09433594 9.94726562 -1.09765625 8.984375 C-1.10289307 8.12553711 -1.10812988 7.26669922 -1.11352539 6.38183594 C-1.00539986 4.11329256 -0.63582423 2.17368285 0 0 Z " fill="#3FA3E3" transform="translate(250,264)"/>
<path d="M0 0 C0.99 0 1.98 0 3 0 C2.67 0.99 2.34 1.98 2 3 C1.84970012 5.06362991 1.75155552 7.13123915 1.68359375 9.19921875 C1.64169922 10.40771484 1.59980469 11.61621094 1.55664062 12.86132812 C1.51732422 14.12396484 1.47800781 15.38660156 1.4375 16.6875 C1.39431641 17.96173828 1.35113281 19.23597656 1.30664062 20.54882812 C1.2004514 23.69910852 1.09840467 26.84946839 1 30 C0.67 30 0.34 30 0 30 C0 20.1 0 10.2 0 0 Z " fill="#0C0F5A" transform="translate(205,145)"/>
<path d="M0 0 C11.70615034 6.15034169 11.70615034 6.15034169 16 10 C11.30868408 9.49785035 8.4403566 8.31803532 4.625 5.5625 C3.75101563 4.94503906 2.87703125 4.32757813 1.9765625 3.69140625 C1.32429687 3.13324219 0.67203125 2.57507813 0 2 C0 1.34 0 0.68 0 0 Z " fill="#224986" transform="translate(245,168)"/>
<path d="M0 0 C5.4380813 2.57593325 10.27377293 5.25840357 15 9 C15 9.66 15 10.32 15 11 C14.34 11 13.68 11 13 11 C13 10.34 13 9.68 13 9 C12.0925 8.9175 11.185 8.835 10.25 8.75 C6.53386595 7.8924306 5.46704667 6.80732897 3 4 C2.01 3.34 1.02 2.68 0 2 C0 1.34 0 0.68 0 0 Z " fill="#1B3272" transform="translate(230,159)"/>
<path d="M0 0 C3.10712212 0.78637041 6.09244107 1.63924116 9 3 C10.5625 5.6875 10.5625 5.6875 11 8 C11.66 8 12.32 8 13 8 C12.67 8.66 12.34 9.32 12 10 C9.99708788 8.52464063 7.99763223 7.04497707 6 5.5625 C5.42765625 5.14162109 4.8553125 4.72074219 4.265625 4.28710938 C2.82546081 3.21555864 1.41048004 2.11033324 0 1 C0 0.67 0 0.34 0 0 Z " fill="#2D5093" transform="translate(79,306)"/>
<path d="M0 0 C-1.31625194 3.94875582 -3.05365398 4.54992713 -6.5625 6.6875 C-7.57441406 7.31011719 -8.58632812 7.93273437 -9.62890625 8.57421875 C-10.41136719 9.04472656 -11.19382812 9.51523438 -12 10 C-12.66 9.34 -13.32 8.68 -14 8 C-12.68 7.67 -11.36 7.34 -10 7 C-10 6.34 -10 5.68 -10 5 C-7 3 -7 3 -4 3 C-4 2.34 -4 1.68 -4 1 C-2 0 -2 0 0 0 Z " fill="#38216A" transform="translate(86,190)"/>
<path d="M0 0 C3.465 1.98 3.465 1.98 7 4 C7 4.33 7 4.66 7 5 C5.35 5.33 3.7 5.66 2 6 C1.67 8.97 1.34 11.94 1 15 C0.67 15 0.34 15 0 15 C0 10.05 0 5.1 0 0 Z " fill="#252A78" transform="translate(139,268)"/>
<path d="M0 0 C0.66 0.33 1.32 0.66 2 1 C0.68 2.65 -0.64 4.3 -2 6 C-1.67 6.66 -1.34 7.32 -1 8 C-1.33984375 10.1640625 -1.33984375 10.1640625 -1.9375 12.625 C-2.13214844 13.44226563 -2.32679688 14.25953125 -2.52734375 15.1015625 C-2.68332031 15.72804688 -2.83929688 16.35453125 -3 17 C-3.33 17 -3.66 17 -4 17 C-4.10832169 14.91781638 -4.18573541 12.83400871 -4.25 10.75 C-4.29640625 9.58984375 -4.3428125 8.4296875 -4.390625 7.234375 C-3.93035506 3.42333987 -2.94851556 2.34488245 0 0 Z " fill="#1660B8" transform="translate(159,279)"/>
<path d="M0 0 C0.59296875 0.21140625 1.1859375 0.4228125 1.796875 0.640625 C0.51059789 1.81323111 -0.78232283 2.9785533 -2.078125 4.140625 C-2.79742187 4.7903125 -3.51671875 5.44 -4.2578125 6.109375 C-6.203125 7.640625 -6.203125 7.640625 -8.203125 7.640625 C-8.203125 6.650625 -8.203125 5.660625 -8.203125 4.640625 C-3.0628811 -0.4996189 -3.0628811 -0.4996189 0 0 Z " fill="#1E245F" transform="translate(265.203125,277.359375)"/>
<path d="M0 0 C0.99 0.33 1.98 0.66 3 1 C-2.445 5.455 -2.445 5.455 -8 10 C-8.33 9.01 -8.66 8.02 -9 7 C-8.34 7 -7.68 7 -7 7 C-7 6.34 -7 5.68 -7 5 C-4.4385343 2.70351351 -3.52032428 2 0 2 C0 1.34 0 0.68 0 0 Z " fill="#DAF2F9" transform="translate(179,259)"/>
<path d="M0 0 C0.33 0.99 0.66 1.98 1 3 C-1.64 5.64 -4.28 8.28 -7 11 C-7.33 9.68 -7.66 8.36 -8 7 C-7.50628906 6.66226563 -7.01257813 6.32453125 -6.50390625 5.9765625 C-5.86324219 5.53054687 -5.22257813 5.08453125 -4.5625 4.625 C-3.92441406 4.18414062 -3.28632813 3.74328125 -2.62890625 3.2890625 C-0.86259072 2.07839147 -0.86259072 2.07839147 0 0 Z " fill="#18205A" transform="translate(205,240)"/>
<path d="M0 0 C0.99 0 1.98 0 3 0 C2.67 3.96 2.34 7.92 2 12 C1.34 12 0.68 12 0 12 C0 8.04 0 4.08 0 0 Z " fill="#56BAED" transform="translate(227,288)"/>
<path d="M0 0 C1.65 0 3.3 0 5 0 C5 1.98 5 3.96 5 6 C2.525 5.01 2.525 5.01 0 4 C0 2.68 0 1.36 0 0 Z " fill="#2A1C74" transform="translate(66,293)"/>
<path d="M0 0 C1.65 0 3.3 0 5 0 C5 2.97 5 5.94 5 9 C4.01 9.495 4.01 9.495 3 10 C2.34 9.34 1.68 8.68 1 8 C1.66 5.69 2.32 3.38 3 1 C2.01 0.67 1.02 0.34 0 0 Z " fill="#0D1D59" transform="translate(266,266)"/>
<path d="M0 0 C0.61488281 0.18949219 1.22976562 0.37898438 1.86328125 0.57421875 C0.74358265 1.58015118 -0.38265995 2.57880365 -1.51171875 3.57421875 C-2.13820312 4.13109375 -2.7646875 4.68796875 -3.41015625 5.26171875 C-5.13671875 6.57421875 -5.13671875 6.57421875 -7.13671875 6.57421875 C-6.76164493 3.85493358 -6.29453214 2.73203214 -4.32421875 0.76171875 C-2.13671875 -0.42578125 -2.13671875 -0.42578125 0 0 Z " fill="#212B6A" transform="translate(167.13671875,356.42578125)"/>
<path d="M0 0 C0.33 0 0.66 0 1 0 C1 3.63 1 7.26 1 11 C0.34 11 -0.32 11 -1 11 C-1.33 11.99 -1.66 12.98 -2 14 C-2.21192221 8.80790596 -1.5912689 4.873261 0 0 Z " fill="#3D9ADB" transform="translate(229,261)"/>
<path d="M0 0 C-1.50223584 4.20626034 -4.28550034 5.73900021 -8 8 C-8 7.01 -8 6.02 -8 5 C-7.34 5 -6.68 5 -6 5 C-5.87625 4.360625 -5.7525 3.72125 -5.625 3.0625 C-5.41875 2.381875 -5.2125 1.70125 -5 1 C-3 0 -3 0 0 0 Z " fill="#233369" transform="translate(203,328)"/>
<path d="M0 0 C0.66 0 1.32 0 2 0 C2.66 3.3 3.32 6.6 4 10 C2.68 9.34 1.36 8.68 0 8 C0 5.36 0 2.72 0 0 Z " fill="#09156A" transform="translate(152,354)"/>
<path d="M0 0 C4.75481646 0.57634139 7.97048212 2.55068521 12 5 C11.01 5.495 11.01 5.495 10 6 C6.05312508 4.56477275 2.68899452 3.32169911 0 0 Z " fill="#1F4382" transform="translate(247,161)"/>
<path d="M0 0 C2.125 0.375 2.125 0.375 4 1 C1.6875 3.5 1.6875 3.5 -1 6 C-1.99 6 -2.98 6 -4 6 C-2.84826645 3.53199953 -1.95216435 1.95216435 0 0 Z " fill="#191B42" transform="translate(238,57)"/>
<path d="M0 0 C0.33 0 0.66 0 1 0 C1 4.62 1 9.24 1 14 C0.01 13.01 -0.98 12.02 -2 11 C-1.75 8.125 -1.75 8.125 -1 5 C-0.814375 4.05125 -0.62875 3.1025 -0.4375 2.125 C-0.293125 1.42375 -0.14875 0.7225 0 0 Z " fill="#362C9A" transform="translate(106,279)"/>
<path d="M0 0 C3.1414436 1.83250877 6.22602027 3.63698023 9 6 C9 6.66 9 7.32 9 8 C5.56801397 6.76067171 2.69674368 5.49698489 0 3 C0 2.01 0 1.02 0 0 Z " fill="#2A3D8C" transform="translate(146,273)"/>
<path d="M0 0 C0.33 0 0.66 0 1 0 C1 2.31 1 4.62 1 7 C-1.64 7 -4.28 7 -7 7 C-6.34 6.34 -5.68 5.68 -5 5 C-3.68 5 -2.36 5 -1 5 C-0.67 3.35 -0.34 1.7 0 0 Z " fill="#38A3DF" transform="translate(164,320)"/>
<path d="M0 0 C0 0.99 0 1.98 0 3 C-3 5.1875 -3 5.1875 -6 7 C-6.33 6.34 -6.66 5.68 -7 5 C-2.25 0 -2.25 0 0 0 Z " fill="#371F6E" transform="translate(105,187)"/>
<path d="M0 0 C0.598125 0.20625 1.19625 0.4125 1.8125 0.625 C-1.1575 3.1 -1.1575 3.1 -4.1875 5.625 C-4.5175 4.305 -4.8475 2.985 -5.1875 1.625 C-2.1875 -0.375 -2.1875 -0.375 0 0 Z " fill="#1D2D67" transform="translate(182.1875,344.375)"/>
<path d="M0 0 C-1.23789629 3.71368887 -2.85224877 4.77354181 -6 7 C-6.66 7 -7.32 7 -8 7 C-8 6.34 -8 5.68 -8 5 C-7.34 5 -6.68 5 -6 5 C-6 4.01 -6 3.02 -6 2 C-2.25 0 -2.25 0 0 0 Z " fill="#1D2D63" transform="translate(213,320)"/>
<path d="M0 0 C0.33 0.99 0.66 1.98 1 3 C-0.32 4.32 -1.64 5.64 -3 7 C-3.99 6.67 -4.98 6.34 -6 6 C-5.34 5.67 -4.68 5.34 -4 5 C-3.67 4.34 -3.34 3.68 -3 3 C-2 1 -2 1 0 0 Z " fill="#182964" transform="translate(225,308)"/>
<path d="M0 0 C0.66 0.33 1.32 0.66 2 1 C2.40729228 3.32156597 2.74438677 5.6568787 3 8 C1.02 8.99 1.02 8.99 -1 10 C-0.67 6.7 -0.34 3.4 0 0 Z " fill="#2733AA" transform="translate(97,273)"/>
<path d="M0 0 C-4.455 2.97 -4.455 2.97 -9 6 C-8 2 -8 2 -6.1875 0.1875 C-4 -1 -4 -1 0 0 Z " fill="#3A2768" transform="translate(96,185)"/>
<path d="M0 0 C0.33 0.99 0.66 1.98 1 3 C-0.28524261 3.86380259 -1.57842419 4.71580369 -2.875 5.5625 C-3.59429687 6.03816406 -4.31359375 6.51382812 -5.0546875 7.00390625 C-5.69664062 7.33261719 -6.33859375 7.66132813 -7 8 C-7.66 7.67 -8.32 7.34 -9 7 C-6.03 4.69 -3.06 2.38 0 0 Z " fill="#4277A9" transform="translate(194,250)"/>
<path d="M0 0 C0.66 0.33 1.32 0.66 2 1 C-1.96 4.465 -1.96 4.465 -6 8 C-6.66 7.67 -7.32 7.34 -8 7 C-5.36 4.69 -2.72 2.38 0 0 Z " fill="#D0D7E6" transform="translate(215,319)"/>
<path d="M0 0 C6.75 1.625 6.75 1.625 9 5 C5 5 5 5 2.25 2.5 C1.5075 1.675 0.765 0.85 0 0 Z " fill="#723B9B" transform="translate(56,288)"/>
<path d="M0 0 C0.33 0 0.66 0 1 0 C1.1953125 6.0546875 1.1953125 6.0546875 1 8 C0.34 8.66 -0.32 9.32 -1 10 C-2.25 3.375 -2.25 3.375 0 0 Z " fill="#49AFE8" transform="translate(229,280)"/>
<path d="M0 0 C0.66 0.33 1.32 0.66 2 1 C0.875 2.9375 0.875 2.9375 -1 5 C-4.1875 5.75 -4.1875 5.75 -7 6 C-4.74259377 3.66475218 -2.7194239 1.81294927 0 0 Z " fill="#442F76" transform="translate(97,191)"/>
<path d="M0 0 C0.66 1.32 1.32 2.64 2 4 C1.01 4.99 0.02 5.98 -1 7 C-3.475 6.01 -3.475 6.01 -6 5 C-6 4.67 -6 4.34 -6 4 C-4.02 4 -2.04 4 0 4 C0 2.68 0 1.36 0 0 Z " fill="#2D3772" transform="translate(157,360)"/>
<path d="M0 0 C0.33 0 0.66 0 1 0 C1 1.98 1 3.96 1 6 C0.34 6 -0.32 6 -1 6 C-1 7.65 -1 9.3 -1 11 C-1.33 11 -1.66 11 -2 11 C-2.25 3.375 -2.25 3.375 0 0 Z " fill="#317FC6" transform="translate(229,242)"/>
<path d="M0 0 C0.33 0 0.66 0 1 0 C1.08096803 1.45742463 1.13917774 2.91612807 1.1875 4.375 C1.22230469 5.18710938 1.25710937 5.99921875 1.29296875 6.8359375 C1.19628906 7.55007812 1.09960938 8.26421875 1 9 C0.01 9.66 -0.98 10.32 -2 11 C-1.85957123 9.35369672 -1.71250671 7.70795821 -1.5625 6.0625 C-1.48128906 5.14597656 -1.40007812 4.22945312 -1.31640625 3.28515625 C-1 1 -1 1 0 0 Z " fill="#266CBA" transform="translate(229,227)"/>
<path d="M0 0 C1.32 0 2.64 0 4 0 C4.99 1.98 5.98 3.96 7 6 C4.50638429 4.79618552 2.31856917 3.54571278 0 2 C0 1.34 0 0.68 0 0 Z " fill="#242554" transform="translate(136,351)"/>
<path d="M0 0 C1.32 0.33 2.64 0.66 4 1 C1.36 2.65 -1.28 4.3 -4 6 C-4 5.01 -4 4.02 -4 3 C-3.01 3 -2.02 3 -1 3 C-0.67 2.01 -0.34 1.02 0 0 Z " fill="#322262" transform="translate(101,178)"/>
<path d="M0 0 C2.31 0.33 4.62 0.66 7 1 C6.67 2.32 6.34 3.64 6 5 C3.98079663 3.69593116 1.98075027 2.36176581 0 1 C0 0.67 0 0.34 0 0 Z " fill="#2C366F" transform="translate(219,144)"/>
</svg>
